<?xml version="1.0" encoding="UTF-8"?>
<svg enable-background="new 0 0 100 100" fill="#000000" version="1.1" viewBox="0 0 100 100" xml:space="preserve" xmlns="http://www.w3.org/2000/svg" xmlns:cc="http://creativecommons.org/ns#" xmlns:dc="http://purl.org/dc/elements/1.1/" xmlns:rdf="http://www.w3.org/1999/02/22-rdf-syntax-ns#"><metadata><rdf:RDF><cc:Work rdf:about=""><dc:format>image/svg+xml</dc:format><dc:type rdf:resource="http://purl.org/dc/dcmitype/StillImage"/><dc:title/></cc:Work></rdf:RDF></metadata><g transform="translate(.42394 -.056559)"><path d="m42.101 80.682h14.576c0.631-3.473 1.151-5.774 1.583-8.932h-17.351c0.466 4.799 0.963 7.384 1.192 8.932z"/><path d="m39.986 46.168h19.865c-0.148-5.253-0.632-9.784-1.326-13.681h-17.254c-0.724 4.398-1.119 9.051-1.285 13.681z"/><path d="m49.986 11.936c-3.882 3.222-5.494 7.411-7.202 13.56h14.113c-2.721-9.209-5.51-12.302-6.911-13.56z"/><path d="m40.406 65.757h18.576c0.48-4.54 0.76-8.737 0.864-12.597h-19.953c0.036 4.45 0.24 8.736 0.513 12.597z"/><path d="m70.242 35.35c-0.554-4.357-1.006-7.047-2.542-10.924-2.033-5.134-4.822-10.355-8.959-14.06-2.913-2.608-7.357-7.199-11.634-4.559-2.593 1.6-4.977 3.471-7.12 5.651-4.487 4.563-9.305 11.416-10.22 23.842-0.036 0.48-0.154 1.096 0.324 1.132 0.465 0.038 0.648-0.327 0.683-0.808 0.839-11.393 5.715-18.026 10.389-22.819-0.2 0.267-0.401 0.537-0.602 0.82-3.705 5.217-7.552 14.159-7.552 27.324 0 0.491 0.088 0.93 0.571 0.93 0.484 0 0.401-0.475 0.401-0.966 0-14.059 5.249-23.247 9.679-28.505-16.017 23.822-5.175 79.132-5.175 79.132h5.95c0.253 0.781 0.528 1.349 0.739 1.455 0.354 0.177 0.667 0.491 0.695 0.698s0.381 0.608 0.784 0.891c0.404 0.283 1.621 0.514 2.704 0.514s2.3-0.231 2.704-0.514 0.757-0.683 0.784-0.891c0.028-0.207 0.34-0.521 0.695-0.698 0.211-0.105 0.487-0.674 0.739-1.455h5.857c9.283-46.114 2.638-68.299-3.402-78.328 4.275 5.369 9.021 14.333 9.021 27.701 0 0.491-0.083 0.966 0.4 0.966 0.484 0 0.571-0.439 0.571-0.93 0-13.165-3.847-22.107-7.552-27.324-0.366-0.515-0.73-0.995-1.093-1.459 0.193 0.188 0.386 0.378 0.58 0.576 4.258 4.348 9.696 10.891 10.569 22.751 0.034 0.459 0.093 0.944 0.542 0.944 0.021 0 0.043-1e-3 0.065-3e-3 0.48-0.037 0.465-0.606 0.405-1.084zm-11.734 47.329h-18.263s-9.588-58.484 9.75-73.021c-1e-3 0 19.602 13.133 8.513 73.021z"/></g></svg>
